<?xml version="1.0" standalone="no"?>
<!DOCTYPE svg PUBLIC "-//W3C//DTD SVG 20010904//EN"
 "http://www.w3.org/TR/2001/REC-SVG-20010904/DTD/svg10.dtd">
<svg version="1.0" xmlns="http://www.w3.org/2000/svg"
 width="2000.000000pt" height="2000.000000pt" viewBox="0 0 2000.000000 2000.000000"
 preserveAspectRatio="xMidYMid meet">

<g transform="translate(0.000000,2000.000000) scale(0.100000,-0.100000)"
fill="#000000" stroke="none">
<path d="M0 10000 l0 -10000 10000 0 10000 0 0 10000 0 10000 -10000 0 -10000
0 0 -10000z m11047 3298 c24 -20 13 -58 -56 -186 -37 -71 -99 -196 -136 -278
-37 -82 -153 -333 -257 -558 -104 -225 -187 -410 -186 -411 2 -2 75 3 163 10
365 30 614 37 1205 33 465 -4 640 -9 800 -23 245 -22 279 -18 350 35 56 42
113 59 139 43 9 -6 17 -27 19 -52 4 -50 13 -55 121 -71 86 -12 103 -23 99 -59
-4 -34 -26 -38 -205 -40 -78 0 -153 -5 -167 -11 -14 -5 -122 -102 -238 -216
-117 -114 -364 -347 -548 -517 -184 -171 -508 -473 -719 -671 -212 -199 -414
-389 -450 -422 l-66 -61 250 -7 c1051 -28 1268 -38 1323 -57 35 -12 42 -38 17
-59 -13 -11 -52 -11 -203 -1 -229 14 -668 29 -1128 38 l-345 6 -77 -75 c-410
-399 -1107 -992 -1725 -1468 -99 -76 -136 -111 -137 -126 0 -12 16 -46 35 -74
43 -64 36 -80 -37 -80 -53 0 -99 19 -120 49 -13 18 -18 16 -97 -43 -80 -60
-109 -91 -97 -103 3 -3 139 15 303 40 593 92 1074 129 2018 157 471 14 1678
15 2000 1 1044 -45 1792 -121 2730 -276 396 -66 1043 -196 1202 -241 63 -18
103 -48 103 -78 0 -50 -62 -62 -115 -22 -45 34 -136 63 -257 81 -57 9 -211 36
-343 60 -936 174 -1831 279 -2920 345 -925 55 -2590 39 -3580 -35 -563 -43
-1096 -133 -1420 -240 -122 -41 -167 -45 -196 -19 -40 36 -25 57 126 164 145
103 469 341 487 359 12 11 22 49 32 126 33 254 153 606 393 1160 124 284 133
312 113 326 -10 7 -87 9 -214 5 -175 -4 -203 -7 -225 -24 -14 -10 -136 -156
-271 -324 -277 -346 -364 -448 -602 -703 -561 -602 -1232 -1093 -1778 -1300
-150 -57 -382 -117 -545 -142 -165 -25 -560 -25 -726 0 -438 65 -853 252
-1093 493 -238 237 -291 534 -146 813 170 327 658 621 1396 840 431 128 883
220 1399 285 576 73 1247 121 1865 135 364 8 366 8 422 68 72 77 598 841 935
1357 l52 79 -62 47 c-88 67 -174 162 -179 199 -13 92 107 152 422 212 63 12
120 27 127 33 33 30 699 1124 798 1311 62 116 90 154 129 171 32 14 71 11 93
-8z"/>
<path d="M11300 11803 c-30 -1 -158 -7 -285 -13 -281 -13 -622 -39 -650 -50
-24 -9 -249 -491 -247 -527 1 -12 -5 -26 -14 -31 -22 -12 -594 -1248 -594
-1283 0 -36 19 -39 300 -40 151 -1 417 -4 590 -8 l315 -6 40 35 c22 19 136
127 255 240 119 113 405 378 635 590 540 495 812 749 954 894 l115 117 -22 21
c-19 20 -39 23 -234 34 -467 29 -931 39 -1158 27z"/>
<path d="M10048 11569 c-117 -180 -141 -219 -137 -223 33 -24 71 -47 73 -45 6
8 117 270 141 334 14 37 24 70 21 72 -3 3 -47 -59 -98 -138z"/>
<path d="M9849 11670 c-97 -20 -176 -52 -185 -74 -9 -23 25 -84 69 -121 22
-19 44 -35 47 -35 8 0 163 241 158 245 -2 1 -42 -5 -89 -15z"/>
<path d="M9704 11038 c-195 -299 -444 -666 -624 -918 -96 -135 -154 -224 -154
-240 l-1 -25 110 -3 c61 -2 144 0 185 3 108 10 123 29 234 280 49 110 142 315
206 455 243 527 281 612 278 615 -6 5 -87 45 -92 45 -2 0 -66 -96 -142 -212z"/>
<path d="M9638 9760 c-110 -3 -191 -9 -198 -15 -34 -35 -386 -889 -453 -1100
-42 -136 -92 -343 -84 -352 8 -7 573 445 851 680 323 275 873 770 875 790 1 8
-689 6 -991 -3z"/>
<path d="M8165 9733 c-338 -7 -962 -52 -1390 -98 -1286 -141 -2216 -416 -2710
-800 -272 -212 -383 -459 -319 -709 32 -123 129 -269 245 -368 301 -256 751
-415 1233 -435 374 -15 812 104 1215 331 276 156 659 435 926 676 135 121 420
407 549 550 201 222 629 744 661 807 29 56 32 56 -410 46z"/>
</g>
</svg>
